<svg xmlns="http://www.w3.org/2000/svg" width="24" height="24">
  <path d="M10.46 19a4.59 4.59 0 01-6.37 1.15 4.62 4.62 0 012.49-8.38l.05 1.43c-.91.07-1.79.54-2.36 1.36-1 1.44-.69 3.38.68 4.35 1.38.96 3.31.59 4.31-.84.31-.45.49-.94.56-1.44v-1.01l5.58-.04.07-.11a1.89 1.89 0 012.58-.72 1.9 1.9 0 01.68 2.6 1.9 1.9 0 01-2.59.71c-.41-.23-.7-.6-.83-1.02l-4.07.02a4.96 4.96 0 01-.78 1.94m7.28-7.14a4.57 4.57 0 014.02 5.07 4.59 4.59 0 01-5.14 3.96 4.63 4.63 0 01-3.43-2.21l1.24-.72a3.22 3.22 0 002.32 1.45c1.75.21 3.3-.98 3.51-2.65a3.1 3.1 0 00-2.76-3.41 3.39 3.39 0 00-1.53.18l-.85.44-2.58-4.77h-.22a1.9 1.9 0 01-1.85-1.95 1.9 1.9 0 011.98-1.81c1.05.06 1.88.91 1.85 1.95-.02.44-.19.84-.46 1.15l1.9 3.51c.62-.2 1.3-.27 2-.19M8.25 9.14c-1-2.35.06-5.04 2.37-6.02a4.6 4.6 0 016 2.48 4.6 4.6 0 01-.2 4.07l-1.24-.72c.42-.81.49-1.8.09-2.73a3.12 3.12 0 00-4.04-1.72 3.1 3.1 0 00-1.58 4.1 3.2 3.2 0 001.32 1.51l.39.21-3.07 4.99c.03.05.07.11.1.19.49.91.15 2.06-.77 2.55a1.9 1.9 0 01-2.56-.81 1.9 1.9 0 01.77-2.57c.39-.21.82-.26 1.23-.17l2.31-3.77a4.41 4.41 0 01-1.12-1.59z"/>
</svg>