<svg xmlns="http://www.w3.org/2000/svg" width="100" height="100">
  <path d="M56.95 20.76c-5.9 0-11.54 2.06-16 5.83a18.12 18.12 0 00-19.04 3.02 18 18 0 00-5.8 10.15 20.74 20.74 0 005.77 39.95h.1l.07.01h.07l54.22.08a20.77 20.77 0 0015.27-34.81 20.87 20.87 0 00-10.75-6.2 24.92 24.92 0 00-8.46-12.67 25 25 0 00-15.45-5.36zm0 1.66c10.84 0 20.1 7.4 22.58 17.8 4.16.7 7.97 2.75 10.86 5.9a19.12 19.12 0 01-14.04 32.03l-54.23-.08h-.09c-4.72-.44-9.1-2.6-12.32-6.11a19.1 19.1 0 017.88-30.98 16.35 16.35 0 0123.64-12.43 22.97 22.97 0 0115.72-6.13" fill="#7a7e82"/>
  <path d="M19.45 42.53a14.37 14.37 0 0113.87-13.7c5.32.2 10.46 4.18 10.17 10.05-.28 5.93-4.15 9.68-9.18 9.3a7.6 7.6 0 01-4.33-2l.26.17a6.75 6.75 0 10-3.05-7.58c-2.32 7.1 3.6 10.9 7.07 11.4 4.77.7 11.1-2.54 12.05-10.85.43-3.73-.84-7.17-3.09-9.84a21.2 21.2 0 0134.62 12.57c.53 5.73-2.21 11.68-8.29 13.66-7.37 2.4-13.75-.58-15.63-6.9-.45-1.52-.48-4 .44-6.23-.02.14-.07.27-.09.41a8.81 8.81 0 107.85-7.25c-9.76.46-11.65 9.47-10.65 13.94 1.37 6.15 8.26 12.37 18.85 9.67 7.52-1.9 12.17-8.62 12.97-15.88a17.08 17.08 0 01-6.97 32.68H48.85a13 13 0 003.55-10.91C51.14 56.99 44.72 54 40 54.87c-3.45.63-9.22 4.64-6.63 11.63 1.5 4.05 6.29 6.06 10.05 3.63a6.73 6.73 0 00-7.3-11.3l-.12.09c.9-1.13 2.7-1.91 4.1-2.07 5.01-.56 9 3.03 9.51 8.93.5 5.7-4.22 9.8-9.37 10.37H22.2A17.16 17.16 0 016.68 59.07a17.1 17.1 0 0112.77-16.54" fill="#505256"/>
  <path d="M56.41 44.85a6.5 6.5 0 1012.97-.7 6.5 6.5 0 00-12.97.7" fill="#b9da16"/>
  <path d="M28.88 40.46a4.78 4.78 0 109.56 0 4.78 4.78 0 00-9.56 0" fill="#65686d"/>
  <path d="M35.62 64.38a4.16 4.16 0 108.32 0 4.16 4.16 0 00-8.32 0" fill="#ee2e21"/>
</svg>