<?xml version="1.0" encoding="UTF-8" standalone="no"?>
<!-- Created with Inkscape (http://www.inkscape.org/) -->

<svg
   xmlns:dc="http://purl.org/dc/elements/1.1/"
   xmlns:cc="http://creativecommons.org/ns#"
   xmlns:rdf="http://www.w3.org/1999/02/22-rdf-syntax-ns#"
   xmlns:svg="http://www.w3.org/2000/svg"
   xmlns="http://www.w3.org/2000/svg"
   xmlns:sodipodi="http://sodipodi.sourceforge.net/DTD/sodipodi-0.dtd"
   xmlns:inkscape="http://www.inkscape.org/namespaces/inkscape"
   width="100"
   height="100"
   id="svg3376"
   version="1.1"
   inkscape:version="0.48.5 r10040"
   sodipodi:docname="New document 3">
  <defs
     id="defs3378" />
  <sodipodi:namedview
     id="base"
     pagecolor="#ffffff"
     bordercolor="#666666"
     borderopacity="1.0"
     inkscape:pageopacity="0.0"
     inkscape:pageshadow="2"
     inkscape:zoom="1.979899"
     inkscape:cx="4.3401302"
     inkscape:cy="-16.197413"
     inkscape:document-units="px"
     inkscape:current-layer="layer1"
     showgrid="false"
     fit-margin-top="0"
     fit-margin-left="0"
     fit-margin-right="0"
     fit-margin-bottom="0"
     inkscape:window-width="1259"
     inkscape:window-height="815"
     inkscape:window-x="1913"
     inkscape:window-y="60"
     inkscape:window-maximized="0" />
  <metadata
     id="metadata3381">
    <rdf:RDF>
      <cc:Work
         rdf:about="">
        <dc:format>image/svg+xml</dc:format>
        <dc:type
           rdf:resource="http://purl.org/dc/dcmitype/StillImage" />
        <dc:title></dc:title>
      </cc:Work>
    </rdf:RDF>
  </metadata>
  <g
     inkscape:label="Layer 1"
     inkscape:groupmode="layer"
     id="layer1"
     transform="translate(-150.10944,-416.16477)">
    <path
       inkscape:connector-curvature="0"
       id="path76"
       style="fill:#7a7e82;fill-opacity:1;fill-rule:nonzero;stroke:none"
       d="M 207.05836,436.92797 C 201.16086,436.92797 195.52324,438.9881 191.05986,442.7541 188.82011,441.79322 186.38211,441.28935 183.93974,441.28935 179.54074,441.28935 175.30636,442.8831 172.01736,445.7756 169.00224,448.4256 166.96699,451.99922 166.21899,455.9246 158.35424,459.04322 153.1399,466.6706 153.1399,475.21172 153.1399,480.4231 155.08032,485.4046 158.60186,489.24047 162.10136,493.05197 166.85761,495.40547 171.99436,495.87422 L 172.08574,495.8821 172.15899,495.88797 172.23074,495.88797 226.45236,495.96172 C 237.89911,495.96172 247.20674,486.6531 247.20674,475.21172 247.20674,469.9856 245.25761,464.99297 241.71849,461.1546 238.85374,458.0481 235.07299,455.87422 230.97386,454.95822 229.55449,449.97197 226.57836,445.50322 222.51349,442.28535 218.14724,438.83085 212.65899,436.92797 207.05836,436.92797 L 207.05836,436.92797 z M 207.05836,438.58322 C 217.89824,438.58322 227.16524,445.9831 229.63499,456.3821 233.79511,457.08085 237.61111,459.13935 240.50074,462.2756 243.75849,465.80935 245.55149,470.4031 245.55149,475.21172 245.55149,485.74047 236.98511,494.30685 226.45636,494.30685 L 172.23311,494.2331 172.14386,494.22585 C 167.41874,493.7966 163.04274,491.62822 159.82099,488.12035 156.57935,484.5921 154.79419,480.0071 154.79419,475.21172 154.79419,466.99685 160.03349,459.76047 167.69899,457.14185 168.77074,449.07197 175.64386,442.9446 183.93974,442.9446 186.52661,442.9446 189.05449,443.55197 191.34161,444.71172 195.63349,440.74685 201.15449,438.58322 207.05836,438.58322" />
    <path
       inkscape:connector-curvature="0"
       id="path78"
       style="fill:#50ace4;fill-opacity:1;fill-rule:nonzero;stroke:none"
       d="M 169.55986,458.69697 C 169.89774,451.22285 175.93674,445.24047 183.43186,444.99047 188.74786,445.18585 193.88849,449.1716 193.60324,455.0481 193.31761,460.97922 189.44461,464.72435 184.41624,464.34935 183.20099,464.26047 181.42461,463.60572 180.08474,462.3381 180.17549,462.39672 180.25811,462.45922 180.34986,462.51297 183.55099,464.41335 187.68824,463.3591 189.59011,460.15947 191.48999,456.95685 190.43336,452.82297 187.23711,450.9231 184.03486,449.02172 179.90311,450.07547 178.00124,453.2781 177.88261,453.47685 177.77861,453.6746 177.68486,453.8831 177.52224,454.22685 177.39824,454.58085 177.30199,454.93435 174.97686,462.03447 180.89961,465.8391 184.37186,466.3421 189.13549,467.03447 195.46074,463.7966 196.41874,455.4881 196.84736,451.75072 195.58224,448.31172 193.33086,445.64572 197.02611,442.50947 201.81124,440.61547 207.03736,440.61547 217.51924,440.61547 226.22436,448.22197 227.93486,458.2171 227.93974,458.2171 227.94561,458.21797 227.95136,458.21947 228.47686,463.94947 225.73761,469.89672 219.66436,471.87572 212.28486,474.28197 205.91136,471.29422 204.02949,464.97585 203.57449,463.45047 203.55011,460.97685 204.47436,458.74922 204.44649,458.88797 204.40411,459.01935 204.38311,459.1546 203.55099,463.94797 206.75899,468.51297 211.55536,469.34697 216.34736,470.18185 220.90849,466.97047 221.74286,462.18185 222.57786,457.38547 219.36886,452.82785 214.57549,451.99297 214.27611,451.93922 213.98561,451.9046 213.68924,451.88697 213.19211,451.84785 212.70236,451.8631 212.22536,451.90947 202.46999,452.36797 200.57736,461.37185 201.57686,465.84785 202.94511,471.99047 209.83861,478.21072 220.43186,475.51935 227.95136,473.6081 232.60036,466.89185 233.39724,459.6306 239.36261,462.2956 243.52174,468.2766 243.52174,475.2331 243.52174,484.66922 235.87286,492.3196 226.43436,492.3196 L 198.95636,492.3196 C 201.63986,489.45047 203.15311,485.57685 202.51386,481.4046 201.24824,473.15797 194.82499,470.16572 190.10136,471.03447 186.65699,471.66435 180.89386,475.67797 183.47686,482.66822 184.97199,486.7156 189.76974,488.72435 193.53099,486.2981 196.64674,484.28447 197.54561,480.12335 195.53149,477.00322 193.51686,473.8821 189.35474,472.9871 186.23261,474.99922 186.19024,475.0266 186.15061,475.05785 186.10474,475.08185 187.00074,473.95185 188.81174,473.1731 190.21849,473.01685 195.21899,472.45685 199.21699,476.0466 199.72286,481.94797 200.21561,487.6506 195.49486,491.7541 190.35274,492.3196 L 172.30636,492.3196 C 163.60424,491.5281 156.7854,484.14185 156.7854,475.2331 156.7854,467.28685 162.21074,460.60672 169.55986,458.69697" />
    <path
       inkscape:connector-curvature="0"
       id="path80"
       style="fill:#b9da16;fill-opacity:1;fill-rule:nonzero;stroke:none"
       d="M 206.51974,461.01685 C 206.71661,464.59935 209.77811,467.34547 213.36211,467.14922 216.94461,466.95435 219.69111,463.89035 219.49436,460.30935 219.29811,456.72585 216.23561,453.97922 212.65411,454.1756 209.07011,454.37035 206.32449,457.43435 206.51974,461.01685" />
    <path
       inkscape:connector-curvature="0"
       id="path82"
       style="fill:#65686d;fill-opacity:1;fill-rule:nonzero;stroke:none"
       d="M 178.98761,456.62422 C 178.98761,459.26685 181.12861,461.40797 183.77074,461.40797 186.41186,461.40797 188.55199,459.26685 188.55199,456.62422 188.55199,453.9841 186.41186,451.8421 183.77074,451.8421 181.12861,451.8421 178.98761,453.9841 178.98761,456.62422" />
    <path
       inkscape:connector-curvature="0"
       id="path84"
       style="fill:#ee2e21;fill-opacity:1;fill-rule:nonzero;stroke:none"
       d="M 185.72586,480.54322 C 185.72586,482.8406 187.58761,484.70285 189.88599,484.70285 192.18236,484.70285 194.04661,482.8406 194.04661,480.54322 194.04661,478.24435 192.18236,476.3831 189.88599,476.3831 187.58761,476.3831 185.72586,478.24435 185.72586,480.54322" />
  </g>
</svg>
