<svg xmlns="http://www.w3.org/2000/svg" width="154" height="154">
  <path d="M112.35 113.35h-17.2a3.3 3.3 0 00-3.3 3.2v17.5h-50v-72.7l32-32a4.6 4.6 0 016.6 0l32 32zm39.2-34.3l-71.2-71.2a4.6 4.6 0 00-6.6 0l-71.2 71.2a4.6 4.6 0 000 6.5l7.5 7.5 18.1-18.2v68c0 2.6 2 4.7 4.6 4.7h61.6l31.4-31.5v-41.2l18.2 18.2 7.5-7.5a4.6 4.6 0 000-6.5" fill="#3972c1"/>
  <path d="M61.5 64.25h26.9v-5.8H61.5v5.8m-7 55.3h14.2v-5.8H54.5v5.8m0-38.8h45v-5.8h-45v5.8m0 10.9h45v-5.7h-45v5.7m0 11h45v-5.8h-45v5.8" fill="#505256"/>
</svg>