<?xml version="1.0" encoding="UTF-8" standalone="no"?>
<svg
   xmlns:dc="http://purl.org/dc/elements/1.1/"
   xmlns:cc="http://creativecommons.org/ns#"
   xmlns:rdf="http://www.w3.org/1999/02/22-rdf-syntax-ns#"
   xmlns:svg="http://www.w3.org/2000/svg"
   xmlns="http://www.w3.org/2000/svg"
   xmlns:sodipodi="http://sodipodi.sourceforge.net/DTD/sodipodi-0.dtd"
   xmlns:inkscape="http://www.inkscape.org/namespaces/inkscape"
   version="1.1"
   id="svg2"
   xml:space="preserve"
   width="255.66667"
   height="214.57333"
   viewBox="0 0 255.66667 214.57333"
   sodipodi:docname="regudocs.eps"><metadata
     id="metadata8"><rdf:RDF><cc:Work
         rdf:about=""><dc:format>image/svg+xml</dc:format><dc:type
           rdf:resource="http://purl.org/dc/dcmitype/StillImage" /></cc:Work></rdf:RDF></metadata><defs
     id="defs6" /><sodipodi:namedview
     pagecolor="#ffffff"
     bordercolor="#666666"
     borderopacity="1"
     objecttolerance="10"
     gridtolerance="10"
     guidetolerance="10"
     inkscape:pageopacity="0"
     inkscape:pageshadow="2"
     inkscape:window-width="640"
     inkscape:window-height="480"
     id="namedview4" /><g
     id="g10"
     inkscape:groupmode="layer"
     inkscape:label="ink_ext_XXXXXX"
     transform="matrix(1.3333333,0,0,-1.3333333,0,214.57333)"><g
       id="g12"
       transform="scale(0.1)"><path
         d="m 1216.6,807.863 h -129.96 c -13.51,0 -24.43,-10.945 -24.43,-24.445 V 652.398 H 686.77 v 544.892 l 240.418,240.45 c 13.535,13.53 35.468,13.53 48.964,0 L 1216.6,1197.29 Z m 294.02,256.837 -534.468,534.45 c -13.496,13.52 -35.429,13.52 -48.964,0 L 392.742,1064.7 c -13.523,-13.53 -13.523,-35.45 0,-48.97 l 56.223,-56.218 136.789,136.798 V 586.02 c 0,-19.11 15.516,-34.622 34.629,-34.622 h 462.167 l 235.04,235.622 v 309.29 l 136.79,-136.798 56.24,56.218 c 13.52,13.52 13.52,35.44 0,48.97"
         style="fill:#3972c1;fill-opacity:1;fill-rule:nonzero;stroke:none"
         id="path14" /><path
         d="m 837.949,1172.05 h 201.541 v 43.29 H 837.949 v -43.29"
         style="fill:#505256;fill-opacity:1;fill-rule:nonzero;stroke:none"
         id="path16" /><path
         d="m 785.168,757.359 h 106.465 v 43.286 H 785.168 v -43.286"
         style="fill:#505256;fill-opacity:1;fill-rule:nonzero;stroke:none"
         id="path18" /><path
         d="m 785.168,1048.42 h 337.892 v 43.28 H 785.168 v -43.28"
         style="fill:#505256;fill-opacity:1;fill-rule:nonzero;stroke:none"
         id="path20" /><path
         d="m 785.168,966.27 h 337.892 v 43.28 H 785.168 v -43.28"
         style="fill:#505256;fill-opacity:1;fill-rule:nonzero;stroke:none"
         id="path22" /><path
         d="m 785.168,884.109 h 337.892 v 43.278 H 785.168 v -43.278"
         style="fill:#505256;fill-opacity:1;fill-rule:nonzero;stroke:none"
         id="path24" /><path
         d="m 58.9063,283.121 h 36.5351 c 38.3596,0 46.5786,20.09 46.5786,41.559 0,30.59 -19.176,35.609 -50.2348,35.609 H 58.9063 Z M 0,107.309 V 413.27 h 100.918 c 55.715,0 100.469,-19.18 100.469,-86.309 0,-35.16 -20.559,-71.242 -70.789,-80.371 18.269,-6.399 25.574,-12.781 35.164,-29.219 l 31.972,-56.633 c 6.844,-11.418 12.325,-15.527 20.996,-15.527 h 12.793 v -37.902 c -9.589,-3.188 -28.769,-3.649 -37.453,-3.649 -21.453,0 -36.074,10.949 -47.031,31.051 l -45.215,81.269 c -8.6677,15.532 -15.9763,16.911 -28.2967,16.911 H 58.9063 V 107.309 H 0"
         style="fill:#505256;fill-opacity:1;fill-rule:nonzero;stroke:none"
         id="path26" /><path
         d="m 318.738,245.211 h 77.641 c 0.457,1.379 0.457,8.68 0.457,11.418 0,23.75 -15.527,29.23 -30.137,29.23 -19.187,0 -38.816,-8.668 -47.961,-40.648 z m -2.73,-36.981 v -0.46 c 0,-37.45 21.004,-58.899 59.82,-58.899 23.281,0 51.606,9.117 69.414,18.719 l 8.676,-41.57 c -15.07,-11.411 -53.43,-25.098 -86.313,-25.098 -59.363,0 -108.679,31.969 -108.679,109.598 0,75.8 40.644,122.371 111.887,122.371 50.222,0 83.562,-27.84 83.562,-82.192 0,-14.609 -2.742,-34.258 -5.488,-42.469 H 316.008"
         style="fill:#505256;fill-opacity:1;fill-rule:nonzero;stroke:none"
         id="path28" /><path
         d="m 545.703,214.16 c 0,-33.789 10.051,-64.39 42.024,-64.39 19.168,0 37.441,7.769 51.14,26.039 v 100.472 c -11.418,6.379 -27.859,10.489 -43.84,10.489 -34.707,0 -49.324,-26.95 -49.324,-72.61 z M 638.867,98.6289 v 28.7691 c -16.445,-16.437 -36.531,-26.476 -63.015,-26.476 -56.633,0 -87.231,48.848 -87.231,110.957 0,84.941 43.383,121.012 108.234,121.012 36.985,0 74.883,-11.871 97.715,-22.821 V 99.082 C 694.57,27.8594 655.762,0 581.785,0 551.191,0 515.105,8.21094 497.754,16.8906 l 10.969,45.668 c 21.465,-7.7773 48.406,-14.1602 70.781,-14.1602 33.789,0 59.363,8.2305 59.363,50.2305"
         style="fill:#505256;fill-opacity:1;fill-rule:nonzero;stroke:none"
         id="path30" /><path
         d="m 885.461,130.141 c -18.273,-18.731 -44.758,-29.219 -69.875,-29.219 -47.031,0 -68.953,32.879 -68.953,75.808 V 326.5 h 55.711 V 188.602 c 0,-25.133 10.957,-38.832 32.883,-38.832 20.086,0 36.98,12.339 50.234,25.582 V 326.5 h 55.711 V 107.309 h -55.711 v 22.832"
         style="fill:#505256;fill-opacity:1;fill-rule:nonzero;stroke:none"
         id="path32" /><path
         d="m 1044.83,137.898 h 53.43 c 88.14,0 124.66,55.723 124.66,122.84 0,73.082 -35.62,121.934 -121.46,121.934 h -56.63 z M 1008.3,413.27 h 97.72 c 115.07,0 155.72,-66.219 155.72,-152.532 0,-78.988 -43.84,-153.429 -152.06,-153.429 H 1008.3 V 413.27"
         style="fill:#505256;fill-opacity:1;fill-rule:nonzero;stroke:none"
         id="path34" /><path
         d="m 1478.2,215.531 c 0,52.969 -26.03,86.301 -66.67,86.301 -42.47,0 -66.68,-33.332 -66.68,-86.301 0,-50.23 22.85,-86.293 66.68,-86.293 44.3,0 66.67,36.063 66.67,86.293 z m -169.88,0 c 0,65.309 35.17,114.617 103.21,114.617 68.04,0 103.21,-49.308 103.21,-114.617 0,-69.859 -40.65,-114.609 -103.21,-114.609 -62.11,0 -103.21,44.75 -103.21,114.609"
         style="fill:#505256;fill-opacity:1;fill-rule:nonzero;stroke:none"
         id="path36" /><path
         d="m 1557.65,210.961 c 0,66.68 33.35,119.187 109.15,119.187 18.72,0 43.39,-5.019 61.19,-16.429 l -7.31,-27.399 c -13.7,6.852 -34.7,13.239 -53.42,13.239 -50.23,0 -73.98,-36.52 -73.98,-87.227 0,-51.133 25.58,-80.363 76.71,-80.363 21.92,0 43.39,6.851 57.09,14.613 l 5.93,-27.391 c -14.61,-9.601 -39.27,-18.269 -67.58,-18.269 -58,0 -107.78,33.34 -107.78,110.039"
         style="fill:#505256;fill-opacity:1;fill-rule:nonzero;stroke:none"
         id="path38" /><path
         d="m 1834.85,100.922 c -23.75,0 -48.86,7.297 -65.76,16.437 l 6.4,29.223 c 14.16,-8.684 40.63,-17.344 61.65,-17.344 26.48,0 47.03,10.481 47.03,35.153 0,18.257 -15.07,26.039 -42.01,36.531 -31.52,12.328 -66.21,25.566 -66.21,65.758 0,41.101 33.33,63.468 77.17,63.468 20.08,0 43.83,-5.929 56.17,-13.699 l -6.4,-28.769 c -10.96,6.402 -31.05,13.25 -51.14,13.25 -24.21,0 -42.47,-11.418 -42.47,-31.059 0,-22.359 22.82,-27.391 49.77,-38.359 27.85,-11.403 58.45,-24.203 58.45,-64.383 0,-42.93 -37.89,-66.207 -82.65,-66.207"
         style="fill:#505256;fill-opacity:1;fill-rule:nonzero;stroke:none"
         id="path40" /></g></g></svg>
