<svg xmlns="http://www.w3.org/2000/svg" width="24" height="24">
  <path d="M12.6 2.86l8.06 3.77c.15.07.34.12.34.32s-.19.24-.34.31C18 8.5 15.3 9.77 12.62 11a1.3 1.3 0 01-1.24 0C8.69 9.76 6 8.5 3.32 7.25 3.18 7.19 3 7.14 3 6.94c0-.18.18-.23.31-.29C6 5.39 8.74 4.1 11.44 2.85c.29-.13.86-.12 1.16.01M12 21.15c-.2 0-.34-.08-.62-.18-2.69-1.24-5.38-2.5-8.05-3.75-.14-.07-.33-.11-.33-.32 0-.2.19-.24.34-.31l1.33-.63c.45-.2.89-.2 1.33.01l5.35 2.49c.44.21.88.2 1.32 0l5.33-2.5c.44-.2.87-.21 1.29-.01.48.21.95.44 1.42.66.07.03.14.07.2.12.13.1.13.27 0 .35-.08.06-.17.11-.26.15-2.65 1.27-5.32 2.49-7.99 3.72-.2.1-.47.2-.66.2m0-4.98c-.1 0-.45-.1-.64-.17-2.68-1.26-5.36-2.5-8.02-3.76-.14-.06-.34-.11-.34-.31 0-.21.2-.25.35-.32l1.35-.64c.43-.19.86-.19 1.3.03l5.38 2.5c.41.19.83.19 1.25 0l5.41-2.53c.41-.19.83-.19 1.25 0l1.42.66c.06.03.13.06.19.11.14.11.14.26-.01.38-.05.04-.12.07-.18.1-2.71 1.28-5.4 2.53-8.1 3.78a2.3 2.3 0 01-.61.17z"/>
</svg>