<svg xmlns="http://www.w3.org/2000/svg" width="24" height="24">
  <path d="M3.42 12c0-1.24.27-2.42.74-3.5l4.1 11.22A8.56 8.56 0 013.42 12m14.37-.43c0 .73-.29 1.58-.65 2.77l-.86 2.86-3.1-9.2.98-.1c.47-.06.41-.74-.05-.71 0 0-1.39.11-2.29.11l-2.26-.11c-.46-.03-.51.68-.06.71l.91.1 1.34 3.64-1.88 5.63L6.74 8l.99-.1c.46-.06.4-.74-.06-.71 0 0-1.39.11-2.29.11l-.55-.01a8.58 8.58 0 0112.96-1.62h-.11c-.84 0-1.44.73-1.44 1.52 0 .71.41 1.31.84 2.01.33.57.71 1.3.71 2.37m-5.64 1.18l2.64 7.22.06.12a8.4 8.4 0 01-5.27.14l2.57-7.48m7.38-4.87a8.55 8.55 0 01-3.22 11.53l2.62-7.57a8.1 8.1 0 00.66-3.07l-.06-.89M12 2a10 10 0 0110 10 10 10 0 01-10 10A10 10 0 012 12 10 10 0 0112 2m0 19.54a9.55 9.55 0 000-19.08 9.55 9.55 0 000 19.08z"/>
</svg>